<?xml version="1.0" standalone="no"?>
<!DOCTYPE svg PUBLIC "-//W3C//DTD SVG 20010904//EN"
 "http://www.w3.org/TR/2001/REC-SVG-20010904/DTD/svg10.dtd">
<svg version="1.0" xmlns="http://www.w3.org/2000/svg"
 width="977.000000pt" height="395.000000pt" viewBox="0 0 977.000000 395.000000"
 preserveAspectRatio="xMidYMid meet">

<g transform="translate(0.000000,395.000000) scale(0.100000,-0.100000)"
fill="#000000" stroke="none">
<path d="M7920 2780 l0 -80 85 0 85 0 0 80 0 80 -85 0 -85 0 0 -80z"/>
<path d="M3270 2654 c-19 -8 -42 -22 -52 -31 -17 -15 -18 -14 -18 10 l0 27
-90 0 -90 0 0 -280 0 -280 89 0 90 0 3 186 c3 181 4 186 27 205 13 10 36 19
51 19 15 0 38 -9 51 -19 23 -19 24 -24 27 -205 l3 -186 84 0 83 0 4 181 3 181
28 24 c36 31 71 31 102 -1 25 -24 25 -26 25 -205 l0 -180 90 0 90 0 0 198 c0
205 -7 256 -43 306 -57 80 -224 86 -309 10 -15 -14 -18 -14 -38 6 -49 49 -141
64 -210 34z"/>
<path d="M4114 2652 c-190 -68 -258 -308 -130 -459 105 -122 311 -138 438 -33
55 45 98 139 98 213 0 79 -15 125 -59 183 -73 97 -226 140 -347 96z m173 -157
c76 -50 81 -183 9 -230 -114 -75 -250 54 -190 180 33 69 116 92 181 50z"/>
<path d="M5248 2657 c-62 -20 -121 -69 -152 -127 -34 -63 -46 -173 -27 -242
18 -65 70 -129 132 -163 49 -27 62 -30 149 -30 106 0 149 16 204 74 33 34 31
39 -36 93 -36 28 -40 29 -56 15 -58 -53 -145 -57 -194 -9 -53 49 -45 52 158
52 l187 0 -7 73 c-11 130 -76 228 -173 263 -46 16 -135 17 -185 1z m155 -168
c47 -51 39 -59 -66 -59 -52 0 -96 3 -100 6 -12 13 25 66 56 80 42 18 76 10
110 -27z"/>
<path d="M6175 2656 c-16 -9 -40 -23 -52 -32 -22 -16 -23 -16 -23 10 l0 26
-85 0 -85 0 0 -280 0 -280 84 0 84 0 4 181 3 181 28 24 c34 29 66 31 101 3
l26 -20 0 -185 0 -184 90 0 90 0 0 173 c0 187 7 215 51 231 39 13 77 0 94 -34
12 -23 15 -67 15 -200 l0 -170 85 0 85 0 0 218 c0 209 -1 221 -23 262 -52 99
-214 122 -306 44 l-30 -25 -40 31 c-33 27 -50 33 -103 36 -43 3 -72 0 -93 -10z"/>
<path d="M7547 2655 c-77 -27 -120 -89 -120 -173 0 -86 50 -135 174 -172 78
-24 106 -44 88 -66 -23 -28 -126 -9 -189 36 l-29 21 -36 -57 c-20 -31 -34 -62
-31 -69 2 -7 35 -28 73 -47 61 -30 76 -33 158 -33 105 0 159 22 193 77 70 116
20 218 -133 272 -93 32 -121 52 -104 73 17 20 53 16 125 -13 36 -14 67 -24 68
-22 1 1 17 29 34 60 l31 57 -32 20 c-42 25 -139 51 -192 51 -22 -1 -57 -7 -78
-15z"/>
<path d="M8347 2656 c-134 -48 -211 -175 -193 -319 14 -106 101 -208 204 -237
48 -13 149 -12 189 3 44 17 123 74 123 90 0 7 -22 35 -49 61 l-50 49 -31 -26
c-56 -48 -121 -47 -173 1 -54 51 -56 152 -5 199 58 53 114 53 172 3 l33 -29
29 32 c16 18 41 45 54 60 l25 29 -39 34 c-68 59 -200 81 -289 50z"/>
<path d="M1727 2640 c-491 -103 -762 -648 -551 -1108 106 -233 315 -397 568
-448 108 -22 284 -15 381 16 150 48 292 141 385 253 64 77 143 239 164 334 20
89 20 256 2 344 -33 154 -119 303 -239 416 -57 53 -189 143 -210 143 -4 0 -7
-33 -7 -73 l0 -74 55 -38 c211 -145 324 -426 271 -671 -10 -43 -36 -117 -58
-164 -33 -69 -56 -100 -127 -170 -93 -92 -161 -134 -274 -169 -358 -109 -746
115 -832 482 -19 81 -19 227 0 302 8 33 34 98 57 145 33 69 57 101 127 170
127 126 268 189 430 191 l71 1 0 69 0 69 -62 -1 c-35 0 -102 -9 -151 -19z"/>
<path d="M4532 2558 c22 -57 70 -182 108 -278 l68 -175 80 -3 80 -3 77 198
c43 109 92 235 111 281 l32 82 -93 0 -94 0 -53 -160 c-29 -88 -55 -160 -58
-160 -3 0 -29 72 -58 160 l-53 160 -94 0 -93 0 40 -102z"/>
<path d="M6852 2432 l3 -229 29 -37 c60 -80 184 -99 263 -42 l38 26 3 -25 c3
-24 5 -25 88 -25 l84 0 0 280 0 280 -85 0 -85 0 0 -152 c0 -84 -5 -170 -10
-190 -18 -64 -83 -88 -131 -49 -23 19 -24 24 -27 205 l-3 186 -85 0 -85 0 3
-228z"/>
<path d="M7920 2380 l0 -280 85 0 85 0 0 280 0 280 -85 0 -85 0 0 -280z"/>
<path d="M2030 2356 c0 -163 -2 -296 -4 -296 -2 0 -21 7 -42 16 -26 11 -59 15
-106 12 -88 -5 -141 -39 -181 -118 -25 -48 -28 -64 -25 -122 3 -55 9 -75 34
-110 101 -143 304 -139 391 9 l28 48 3 416 3 417 -36 6 c-20 4 -43 10 -51 13
-12 4 -14 -38 -14 -291z"/>
<path d="M1740 2357 c-222 -76 -360 -264 -360 -492 0 -293 230 -520 525 -519
267 2 483 202 512 474 13 132 -44 296 -139 397 l-53 55 -5 -88 c-6 -83 -4 -93
21 -141 61 -117 60 -247 -3 -365 -76 -142 -245 -226 -400 -198 -179 33 -315
180 -326 355 -14 216 144 399 356 413 l72 5 0 63 0 64 -67 0 c-44 0 -92 -9
-133 -23z"/>
<path d="M3410 1704 c0 -64 -3 -114 -7 -112 -85 44 -109 50 -163 45 -100 -9
-169 -58 -212 -152 -33 -72 -33 -209 0 -277 29 -58 97 -120 150 -136 77 -23
166 -9 214 35 17 15 18 14 18 -10 l0 -27 90 0 90 0 0 375 0 375 -90 0 -90 0 0
-116z m-32 -259 c31 -34 38 -57 33 -120 -9 -109 -129 -150 -200 -69 -27 30
-31 42 -31 94 0 49 4 64 27 90 52 62 117 64 171 5z"/>
<path d="M3690 1745 l0 -75 90 0 90 0 0 75 0 75 -90 0 -90 0 0 -75z"/>
<path d="M4480 1725 l0 -95 -30 0 -30 0 0 -75 0 -75 29 0 29 0 4 -164 c3 -148
5 -167 24 -193 44 -60 148 -81 234 -47 l40 16 0 75 c0 68 -2 74 -17 67 -10 -4
-34 -9 -55 -12 -52 -6 -59 14 -56 145 l3 108 63 3 62 3 0 74 0 75 -65 0 -65 0
0 95 0 95 -85 0 -85 0 0 -95z"/>
<path d="M5270 1745 l0 -75 85 0 85 0 0 75 0 75 -85 0 -85 0 0 -75z"/>
<path d="M5550 1445 l0 -375 85 0 c78 0 85 2 85 20 0 25 -1 25 56 -5 118 -63
267 -9 328 118 91 191 -10 415 -198 434 -59 6 -133 -14 -156 -43 -25 -29 -30
-11 -30 106 l0 120 -85 0 -85 0 0 -375z m347 25 c47 -28 66 -72 61 -137 -8
-94 -87 -146 -165 -109 -36 17 -73 80 -73 126 0 45 35 105 71 123 44 22 67 21
106 -3z"/>
<path d="M6850 1725 l0 -95 -35 0 -35 0 0 -74 0 -75 33 -3 32 -3 5 -162 c6
-180 12 -200 81 -236 39 -21 144 -19 192 3 26 13 27 16 27 88 0 67 -2 73 -17
66 -10 -4 -34 -9 -54 -11 -54 -7 -60 7 -57 138 l3 114 63 3 62 3 0 74 0 75
-65 0 -65 0 0 95 0 95 -85 0 -85 0 0 -95z"/>
<path d="M7230 1745 l0 -75 90 0 90 0 0 75 0 75 -90 0 -90 0 0 -75z"/>
<path d="M4104 1631 c-114 -29 -175 -148 -127 -248 20 -44 69 -76 158 -104 78
-24 101 -40 92 -63 -11 -27 -86 -20 -153 14 -32 16 -62 30 -65 30 -12 0 -81
-113 -72 -119 91 -62 170 -85 263 -79 123 9 190 72 190 178 0 90 -50 140 -186
184 -28 9 -60 23 -70 31 -19 15 -19 15 1 31 25 19 70 12 135 -21 l46 -23 33
59 c39 71 36 78 -46 109 -63 23 -153 33 -199 21z"/>
<path d="M5110 1624 c-19 -8 -45 -25 -57 -36 l-23 -21 0 31 0 32 -85 0 -85 0
0 -280 0 -280 85 0 85 0 0 116 c0 63 5 135 11 160 14 55 64 101 119 110 l40 7
0 88 0 89 -27 0 c-16 -1 -44 -8 -63 -16z"/>
<path d="M7715 1631 c-127 -31 -213 -132 -223 -262 -8 -121 49 -225 154 -279
42 -21 62 -25 144 -25 87 0 100 3 149 30 101 56 151 142 151 260 0 186 -185
322 -375 276z m142 -167 c80 -50 81 -185 1 -234 -106 -67 -243 65 -184 178 38
73 117 97 183 56z"/>
<path d="M8421 1630 c-13 -6 -36 -19 -52 -31 l-29 -20 0 25 c0 26 0 26 -85 26
l-85 0 0 -280 0 -280 85 0 85 0 0 176 0 176 29 29 c36 36 70 37 108 5 l28 -24
3 -181 4 -181 84 0 85 0 -3 223 c-3 211 -4 224 -26 259 -13 20 -39 47 -58 58
-39 25 -136 36 -173 20z"/>
<path d="M3690 1350 l0 -280 90 0 90 0 0 280 0 280 -90 0 -90 0 0 -280z"/>
<path d="M5270 1350 l0 -280 85 0 85 0 0 280 0 280 -85 0 -85 0 0 -280z"/>
<path d="M6212 1407 l3 -224 28 -42 c61 -92 204 -109 290 -33 16 14 17 13 17
-11 l0 -27 85 0 85 0 0 280 0 280 -85 0 -85 0 0 -170 c0 -213 -10 -240 -89
-240 -17 0 -37 10 -52 26 -23 25 -24 31 -27 205 l-4 179 -84 0 -85 0 3 -223z"/>
<path d="M7230 1350 l0 -280 90 0 90 0 0 280 0 280 -90 0 -90 0 0 -280z"/>
</g>
</svg>
